<?xml version="1.0" standalone="no"?>
<!DOCTYPE svg PUBLIC "-//W3C//DTD SVG 20010904//EN"
 "http://www.w3.org/TR/2001/REC-SVG-20010904/DTD/svg10.dtd">
<svg version="1.0" xmlns="http://www.w3.org/2000/svg"
 width="284.000000pt" height="284.000000pt" viewBox="0 0 284.000000 284.000000"
 preserveAspectRatio="xMidYMid meet">
<metadata>
Created by potrace 1.14, written by Peter Selinger 2001-2017
</metadata>
<g transform="translate(0.000000,284.000000) scale(0.100000,-0.100000)"
fill="#000000" stroke="none">
<path d="M470 2016 c-99 -29 -162 -67 -237 -142 -96 -98 -149 -226 -154 -375
-1 -30 1 -61 5 -67 4 -7 2 -12 -6 -12 -9 0 -9 -3 -2 -8 12 -8 25 -52 27 -94 1
-14 4 -24 6 -22 2 2 20 -24 39 -58 19 -34 41 -68 50 -74 8 -6 12 -16 8 -23 -5
-7 -2 -10 6 -9 7 2 12 -3 10 -10 -1 -8 1 -11 6 -8 5 3 20 -6 33 -20 13 -14 37
-32 52 -40 17 -9 25 -20 21 -27 -4 -7 -4 -9 0 -5 11 10 67 -12 60 -24 -3 -5 0
-8 7 -7 20 4 89 -11 89 -19 0 -7 31 -11 147 -15 39 -1 69 1 67 5 -8 13 11 9
25 -4 9 -8 11 -9 7 -1 -3 6 6 15 24 22 24 8 29 7 24 -2 -4 -7 1 -5 12 4 20 17
63 35 77 31 4 -1 7 3 7 8 0 6 5 10 11 10 6 0 17 6 24 13 33 29 45 37 45 32 0
-3 17 11 38 32 21 21 37 41 35 46 -2 4 1 7 6 7 6 0 11 -7 11 -15 0 -8 5 -15
11 -15 5 0 7 -6 3 -12 -4 -7 -4 -10 1 -6 4 4 26 -8 49 -26 99 -81 196 -117
326 -121 153 -6 278 40 384 139 l57 52 55 -52 c53 -51 133 -97 219 -125 52
-18 237 -17 290 0 113 38 167 72 251 158 98 101 145 230 139 384 -7 220 -135
400 -342 481 -65 26 -94 31 -173 34 -153 3 -279 -42 -382 -138 -28 -26 -54
-48 -58 -48 -3 0 -28 20 -54 45 -58 53 -118 89 -194 117 -74 26 -226 32 -297
12 -27 -8 -57 -16 -66 -18 -38 -10 -123 -64 -171 -108 -29 -26 -55 -48 -58
-48 -3 0 -30 23 -60 50 -137 125 -330 169 -510 116z"/>
<path d="M175 1140 c-3 -5 -1 -10 4 -10 6 0 11 5 11 10 0 6 -2 10 -4 10 -3 0
-8 -4 -11 -10z"/>
<path d="M273 1045 c0 -8 4 -12 9 -9 5 3 6 10 3 15 -9 13 -12 11 -12 -6z"/>
<path d="M930 1019 c0 -5 5 -7 10 -4 6 3 10 8 10 11 0 2 -4 4 -10 4 -5 0 -10
-5 -10 -11z"/>
<path d="M480 940 c-9 -6 -10 -10 -3 -10 6 0 15 5 18 10 8 12 4 12 -15 0z"/>
<path d="M800 940 c-8 -5 -10 -10 -5 -10 6 0 17 5 25 10 8 5 11 10 5 10 -5 0
-17 -5 -25 -10z"/>
<path d="M653 925 c0 -8 4 -12 9 -9 5 3 6 10 3 15 -9 13 -12 11 -12 -6z"/>
<path d="M516 913 c-6 -14 -5 -15 5 -6 7 7 10 15 7 18 -3 3 -9 -2 -12 -12z"/>
<path d="M590 906 c0 -2 7 -7 16 -10 8 -3 12 -2 9 4 -6 10 -25 14 -25 6z"/>
</g>
</svg>
